<svg version="1.1" id="Layer_1" xmlns="http://www.w3.org/2000/svg" xmlns:xlink="http://www.w3.org/1999/xlink" x="0px" y="0px"
	 width="100%" viewBox="0 0 800 800" enable-background="new 0 0 800 800" xml:space="preserve">
<path fill="#ED7940" opacity="1.000000" stroke="none" 
	d="
M503.000000,801.000000 
	C335.333344,801.000000 168.166672,801.000000 1.000000,801.000000 
	C1.000000,534.333313 1.000000,267.666656 1.000000,1.000000 
	C267.666656,1.000000 534.333313,1.000000 801.000000,1.000000 
	C801.000000,267.666656 801.000000,534.333313 801.000000,801.000000 
	C701.833313,801.000000 602.666687,801.000000 503.000000,801.000000 
M231.527374,251.065170 
	C232.128616,258.129272 232.729843,265.193390 233.376755,272.794250 
	C297.189911,261.588745 360.166656,250.530121 423.143402,239.471497 
	C423.269257,239.882706 423.395081,240.293930 423.520935,240.705139 
	C422.304993,241.417557 421.074890,242.106934 419.875244,242.845810 
	C401.186462,254.356476 381.624084,264.676849 363.981018,277.614349 
	C311.770508,315.899841 271.310730,364.926453 238.300186,420.256134 
	C212.234314,463.945648 192.342590,510.389679 177.985504,559.192139 
	C175.651718,567.125122 173.664551,575.160034 171.263184,584.092590 
	C174.343445,584.092590 176.601288,584.084961 178.859070,584.093811 
	C208.669357,584.210266 238.479630,584.328918 268.289917,584.447388 
	C280.439667,584.495667 292.589539,584.525757 304.739075,584.605347 
	C308.301086,584.628662 310.991608,584.278748 311.653442,579.613708 
	C312.395325,574.384644 314.066650,569.253845 315.667267,564.185669 
	C327.388306,527.072937 344.109497,492.407349 366.799805,460.720032 
	C398.886475,415.910614 438.724243,380.454102 490.455383,359.821960 
	C502.698700,354.938873 515.610535,351.731995 528.862732,347.549591 
	C528.862732,357.595917 528.991028,366.059204 528.841492,374.517609 
	C528.002075,421.981232 527.146240,469.444794 526.122437,516.904602 
	C526.034546,520.978882 527.143311,522.496460 531.137329,521.768127 
	C532.114136,521.589966 533.129272,521.625732 534.126099,521.553040 
	C564.026917,519.372559 593.917908,517.034241 623.837463,515.152466 
	C629.273499,514.810608 630.335022,512.747437 630.344116,507.896637 
	C630.400757,477.579437 630.717346,447.262787 630.935852,416.945831 
	C631.686279,312.847626 632.413574,208.749252 633.246399,104.651741 
	C633.279358,100.528870 632.247009,99.594490 628.075745,100.314430 
	C578.346619,108.897591 528.584839,117.291977 478.830780,125.730812 
	C395.741272,139.823700 312.655548,153.938919 229.547729,167.922699 
	C225.622330,168.583191 224.224426,169.839981 224.617706,173.985855 
	C227.024704,199.360641 229.193314,224.758041 231.527374,251.065170 
M314.500366,624.462769 
	C265.420776,624.462769 216.341187,624.462769 167.231293,624.462769 
	C167.231293,651.654114 167.231293,678.090149 167.231293,704.751038 
	C322.496674,704.751038 477.528473,704.751038 632.677124,704.751038 
	C632.677124,677.959473 632.677124,651.420227 632.677124,624.462891 
	C526.735168,624.462891 421.117767,624.462891 314.500366,624.462769 
z"/>
<path fill="#010100" opacity="1.000000" stroke="none" 
	d="
M231.484360,250.606537 
	C229.193314,224.758041 227.024704,199.360641 224.617706,173.985855 
	C224.224426,169.839981 225.622330,168.583191 229.547729,167.922699 
	C312.655548,153.938919 395.741272,139.823700 478.830780,125.730812 
	C528.584839,117.291977 578.346619,108.897591 628.075745,100.314430 
	C632.247009,99.594490 633.279358,100.528870 633.246399,104.651741 
	C632.413574,208.749252 631.686279,312.847626 630.935852,416.945831 
	C630.717346,447.262787 630.400757,477.579437 630.344116,507.896637 
	C630.335022,512.747437 629.273499,514.810608 623.837463,515.152466 
	C593.917908,517.034241 564.026917,519.372559 534.126099,521.553040 
	C533.129272,521.625732 532.114136,521.589966 531.137329,521.768127 
	C527.143311,522.496460 526.034546,520.978882 526.122437,516.904602 
	C527.146240,469.444794 528.002075,421.981232 528.841492,374.517609 
	C528.991028,366.059204 528.862732,357.595917 528.862732,347.549591 
	C515.610535,351.731995 502.698700,354.938873 490.455383,359.821960 
	C438.724243,380.454102 398.886475,415.910614 366.799805,460.720032 
	C344.109497,492.407349 327.388306,527.072937 315.667267,564.185669 
	C314.066650,569.253845 312.395325,574.384644 311.653442,579.613708 
	C310.991608,584.278748 308.301086,584.628662 304.739075,584.605347 
	C292.589539,584.525757 280.439667,584.495667 268.289917,584.447388 
	C238.479630,584.328918 208.669357,584.210266 178.859070,584.093811 
	C176.601288,584.084961 174.343445,584.092590 171.263184,584.092590 
	C173.664551,575.160034 175.651718,567.125122 177.985504,559.192139 
	C192.342590,510.389679 212.234314,463.945648 238.300186,420.256134 
	C271.310730,364.926453 311.770508,315.899841 363.981018,277.614349 
	C381.624084,264.676849 401.186462,254.356476 419.875244,242.845810 
	C421.074890,242.106934 422.304993,241.417557 423.520935,240.705139 
	C423.395081,240.293930 423.269257,239.882706 423.143402,239.471497 
	C360.166656,250.530121 297.189911,261.588745 233.376755,272.794250 
	C232.729843,265.193390 232.128616,258.129272 231.484360,250.606537 
M425.519928,239.554443 
	C425.519928,239.554443 425.390350,239.622421 425.519928,239.554443 
z"/>
<path fill="#010100" opacity="1.000000" stroke="none" 
	d="
M315.000366,624.462830 
	C421.117767,624.462891 526.735168,624.462891 632.677124,624.462891 
	C632.677124,651.420227 632.677124,677.959473 632.677124,704.751038 
	C477.528473,704.751038 322.496674,704.751038 167.231293,704.751038 
	C167.231293,678.090149 167.231293,651.654114 167.231293,624.462769 
	C216.341187,624.462769 265.420776,624.462769 315.000366,624.462830 
z"/>
<path fill="#ED7940" opacity="1.000000" stroke="none" 
	d="
M425.455139,239.588440 
	C425.390350,239.622421 425.519928,239.554443 425.455139,239.588440 
z"/>
</svg>